# xmcd
#
# Track frame offsets:
#	150
#	21195
#	41608
#	68475
#	90745
#	111965
#	130040
#	158683
#	179065
#	202285
#	222833
#	253605
#	282323
#
# Disc length: 4080 seconds
#
# Revision: 1
# Processed by: cddbd v1.5.1PL0 Copyright (c) Steve Scherf et al.
# Submitted via: CDex 1.50Beta5
#
DISCID=be0fee0d
DTITLE=BUCK-TICK - darker than darkness-style93-
DYEAR=2002
DGENRE=Rock
TTITLE0=キラメキの中で…
TTITLE1=Deep Slow
TTITLE2=誘惑
TTITLE3=青の世界
TTITLE4=神風
TTITLE5=ZERO
TTITLE6=ドレス
TTITLE7=LION
TTITLE8=Madman Blues-ミナシ児ノ憂鬱-
TTITLE9=die
TTITLE10=D・T・D
TTITLE11=ドレス(aux send mix)
TTITLE12=die(single Live version)
EXTD=
EXTT0=
EXTT1=
EXTT2=
EXTT3=
EXTT4=
EXTT5=
EXTT6=
EXTT7=
EXTT8=
EXTT9=
EXTT10=
EXTT11=
EXTT12=
PLAYORDER=
